<svg width="29" height="17" viewBox="0 0 29 17" fill="none" xmlns="http://www.w3.org/2000/svg">
<path fill-rule="evenodd" clip-rule="evenodd" d="M29 1.40394V7.09059C28.9999 7.37103 28.9148 7.64515 28.7554 7.8783C28.596 8.11145 28.3694 8.29317 28.1043 8.40048C27.8392 8.50779 27.5475 8.53587 27.2661 8.48118C26.9847 8.42648 26.7262 8.29147 26.5233 8.0932L24.6473 6.25958L16.9678 13.7657C16.6957 14.0315 16.3267 14.1809 15.942 14.1809C15.5573 14.1809 15.1883 14.0315 14.9162 13.7657L10.1384 9.09581L2.45884 16.6019C2.1852 16.8602 1.8187 17.0032 1.43828 16.9999C1.05786 16.9967 0.693963 16.8476 0.424956 16.5846C0.155949 16.3217 0.00336059 15.966 5.48475e-05 15.5942C-0.00325089 15.2224 0.142991 14.8642 0.407282 14.5967L9.11263 6.08798C9.38471 5.82213 9.75369 5.67278 10.1384 5.67278C10.5231 5.67278 10.8921 5.82213 11.1642 6.08798L15.942 10.7579L22.5958 4.25436L20.7198 2.42073C20.5169 2.2224 20.3788 1.96975 20.3228 1.6947C20.2669 1.41965 20.2956 1.13456 20.4054 0.875469C20.5152 0.616379 20.7011 0.39492 20.9396 0.239092C21.1782 0.0832634 21.4586 5.91278e-05 21.7455 0H27.5491L27.6188 0.00141716C27.9892 0.0177708 28.3391 0.172571 28.5962 0.433842C28.8532 0.69511 28.9978 1.04147 29 1.40394Z" fill="#346AF5"/>
</svg>
