<svg width="29" height="18" viewBox="0 0 29 18" fill="none" xmlns="http://www.w3.org/2000/svg">
<path fill-rule="evenodd" clip-rule="evenodd" d="M29 16.0336V10.3469C28.9999 10.0665 28.9148 9.79235 28.7554 9.5592C28.596 9.32605 28.3694 9.14433 28.1043 9.03702C27.8392 8.92971 27.5475 8.90163 27.2661 8.95632C26.9847 9.01102 26.7262 9.14603 26.5233 9.3443L24.6473 11.1779L16.9678 3.67182C16.6957 3.40596 16.3267 3.25661 15.942 3.25661C15.5573 3.25661 15.1883 3.40596 14.9162 3.67182L10.1384 8.34169L2.45884 0.835583C2.1852 0.577262 1.8187 0.434323 1.43828 0.437554C1.05786 0.440785 0.693963 0.589927 0.424956 0.852858C0.155949 1.11579 0.00336059 1.47147 5.48475e-05 1.8433C-0.00325089 2.21512 0.142991 2.57334 0.407282 2.8408L9.11263 11.3495C9.38471 11.6154 9.75369 11.7647 10.1384 11.7647C10.5231 11.7647 10.8921 11.6154 11.1642 11.3495L15.942 6.67965L22.5958 13.1831L20.7198 15.0168C20.5169 15.2151 20.3788 15.4678 20.3228 15.7428C20.2669 16.0179 20.2956 16.3029 20.4054 16.562C20.5152 16.8211 20.7011 17.0426 20.9396 17.1984C21.1782 17.3542 21.4586 17.4374 21.7455 17.4375H27.5491L27.6188 17.4361C27.9892 17.4197 28.3391 17.2649 28.5962 17.0037C28.8532 16.7424 28.9978 16.396 29 16.0336Z" fill="#F95252"/>
</svg>
