<svg width="37" height="38" viewBox="0 0 37 38" fill="none" xmlns="http://www.w3.org/2000/svg">
<path d="M18.5 18.7383C20.4702 18.7383 22.3962 18.1958 24.0343 17.1794C25.6725 16.163 26.9493 14.7183 27.7033 13.0281C28.4572 11.3379 28.6545 9.47802 28.2701 7.6837C27.8858 5.88937 26.937 4.24118 25.5439 2.94755C24.1507 1.65391 22.3758 0.772935 20.4434 0.416022C18.5111 0.0591083 16.5081 0.242289 14.6879 0.9424C12.8677 1.64251 11.3119 2.82811 10.2173 4.34926C9.12269 5.87041 8.53846 7.65881 8.53846 9.48828C8.53846 11.9415 9.58798 14.2943 11.4561 16.029C13.3243 17.7637 15.858 18.7383 18.5 18.7383ZM18.5 21.3811C12.3256 21.3811 0 24.9226 0 31.9526V37.2383H37V31.9526C37 24.9226 24.6744 21.3811 18.5 21.3811Z" fill="url(#paint0_linear_620_366)"/>
<defs>
<linearGradient id="paint0_linear_620_366" x1="-8.0641" y1="9.97512" x2="19.1899" y2="36.5303" gradientUnits="userSpaceOnUse">
<stop stop-color="#C9E50B"/>
<stop offset="1" stop-color="#338778"/>
</linearGradient>
</defs>
</svg>
