<svg width="39" height="39" viewBox="0 0 39 39" fill="none" xmlns="http://www.w3.org/2000/svg">
<path d="M35.9964 14.794V2.66797C35.9964 2.13754 35.7857 1.62883 35.4106 1.25376C35.0356 0.878682 34.5269 0.667969 33.9966 0.667969H31.9968C28.0392 4.62597 20.6039 6.84197 15.9984 7.89397V29.442C20.6039 30.494 28.0392 32.71 31.9968 36.668H33.9966C34.5269 36.668 35.0356 36.4573 35.4106 36.0822C35.7857 35.7071 35.9964 35.1984 35.9964 34.668V22.542C36.8558 22.321 37.6173 21.8204 38.1611 21.1191C38.7049 20.4177 39 19.5555 39 18.668C39 17.7805 38.7049 16.9182 38.1611 16.2169C37.6173 15.5155 36.8558 15.015 35.9964 14.794ZM3.9996 8.66797C2.93884 8.66797 1.92152 9.0894 1.17145 9.83954C0.421385 10.5897 0 11.6071 0 12.668V24.668C0 25.7288 0.421385 26.7463 1.17145 27.4964C1.92152 28.2465 2.93884 28.668 3.9996 28.668H5.99939L7.99919 38.668H11.9988V8.66797H3.9996Z" fill="url(#paint0_linear_499_207)"/>
<defs>
<linearGradient id="paint0_linear_499_207" x1="-8.5" y1="10.668" x2="19.5" y2="38.668" gradientUnits="userSpaceOnUse">
<stop stop-color="#C9E50B"/>
<stop offset="1" stop-color="#338778"/>
</linearGradient>
</defs>
</svg>
