<svg width="111" height="131" viewBox="0 0 111 131" fill="none" xmlns="http://www.w3.org/2000/svg">
<g filter="url(#filter0_d_716_462)">
<path d="M89.4167 54.5625H81.8333V33.75C81.8333 18.4875 68.1833 6 51.5 6C34.8167 6 21.1667 18.4875 21.1667 33.75V54.5625H13.5833C9.79167 54.5625 6 58.0312 6 61.5V110.062C6 113.531 9.79167 117 13.5833 117H89.4167C93.2083 117 97 113.531 97 110.062V61.5C97 58.0312 93.2083 54.5625 89.4167 54.5625ZM59.0833 103.125H43.9167L46.95 87.8625C43.1583 86.475 40.125 82.3125 40.125 78.8438C40.125 73.2937 45.4333 68.4375 51.5 68.4375C57.5667 68.4375 62.875 73.2937 62.875 78.8438C62.875 83.0062 60.6 86.475 56.05 87.8625L59.0833 103.125ZM66.6667 54.5625H36.3333V33.75C36.3333 26.1187 43.1583 19.875 51.5 19.875C59.8417 19.875 66.6667 26.1187 66.6667 33.75V54.5625Z" fill="url(#paint0_linear_716_462)"/>
</g>
<defs>
<filter id="filter0_d_716_462" x="0" y="0" width="111" height="131" filterUnits="userSpaceOnUse" color-interpolation-filters="sRGB">
<feFlood flood-opacity="0" result="BackgroundImageFix"/>
<feColorMatrix in="SourceAlpha" type="matrix" values="0 0 0 0 0 0 0 0 0 0 0 0 0 0 0 0 0 0 127 0" result="hardAlpha"/>
<feOffset dx="4" dy="4"/>
<feGaussianBlur stdDeviation="5"/>
<feComposite in2="hardAlpha" operator="out"/>
<feColorMatrix type="matrix" values="0 0 0 0 0 0 0 0 0 0 0 0 0 0 0 0 0 0 0.6 0"/>
<feBlend mode="normal" in2="BackgroundImageFix" result="effect1_dropShadow_716_462"/>
<feBlend mode="normal" in="SourceGraphic" in2="effect1_dropShadow_716_462" result="shape"/>
</filter>
<linearGradient id="paint0_linear_716_462" x1="6" y1="27.5" x2="51.5" y2="117" gradientUnits="userSpaceOnUse">
<stop stop-color="white"/>
<stop offset="1" stop-color="#C9E50B"/>
</linearGradient>
</defs>
</svg>
