<svg width="39" height="33" viewBox="0 0 39 33" fill="none" xmlns="http://www.w3.org/2000/svg">
<path d="M15.1307 2.49672C12.1954 1.09183 8.09264 0.403637 2.59979 0.379204C2.08175 0.372149 1.57389 0.523577 1.14391 0.813295C0.790979 1.05243 0.502075 1.37485 0.30261 1.75218C0.103145 2.12951 -0.000770479 2.55019 4.3009e-06 2.97723V26.278C4.3009e-06 27.8531 1.11791 29.0414 2.59979 29.0414C8.37374 29.0414 14.1656 29.5822 17.6347 32.8692C17.6821 32.9144 17.7418 32.9446 17.8062 32.956C17.8706 32.9675 17.937 32.9597 17.9971 32.9337C18.0571 32.9077 18.1082 32.8645 18.1441 32.8096C18.1799 32.7547 18.1988 32.6905 18.1985 32.6249V5.16967C18.1986 4.98443 18.1591 4.80133 18.0826 4.63272C18.006 4.46412 17.8943 4.31394 17.7549 4.19236C16.9603 3.51136 16.0776 2.941 15.1307 2.49672ZM37.8528 0.810851C37.4226 0.521854 36.9148 0.371272 36.397 0.379204C30.9041 0.403637 26.8013 1.08857 23.866 2.49672C22.9192 2.94019 22.0363 3.50943 21.241 4.1891C21.1019 4.3109 20.9905 4.46113 20.9141 4.6297C20.8377 4.79827 20.7982 4.98127 20.7983 5.16641V32.6232C20.7982 32.6863 20.8168 32.7479 20.8515 32.8004C20.8863 32.853 20.9358 32.894 20.9937 32.9185C21.0517 32.9429 21.1156 32.9496 21.1774 32.9378C21.2391 32.926 21.296 32.8962 21.341 32.8521C23.4265 30.7753 27.0865 29.0389 36.4002 29.0397C37.0897 29.0397 37.751 28.7652 38.2385 28.2764C38.7261 27.7877 39 27.1248 39 26.4336V2.97804C39.0009 2.55016 38.8968 2.12863 38.6967 1.75067C38.4966 1.3727 38.2068 1.04993 37.8528 0.810851Z" fill="url(#paint0_linear_508_2185)"/>
<defs>
<linearGradient id="paint0_linear_508_2185" x1="-8.5" y1="8.95319" x2="15.2268" y2="36.6252" gradientUnits="userSpaceOnUse">
<stop stop-color="#C9E50B"/>
<stop offset="1" stop-color="#338778"/>
</linearGradient>
</defs>
</svg>
