<svg width="18" height="21" viewBox="0 0 18 21" fill="none" xmlns="http://www.w3.org/2000/svg">
<path d="M17.5 10.5C17.5006 10.7612 17.4334 11.0181 17.3047 11.2457C17.1761 11.4733 16.9905 11.6639 16.7659 11.799L2.84909 20.2736C2.61446 20.4166 2.34572 20.4947 2.07064 20.4997C1.79556 20.5048 1.52411 20.4367 1.28432 20.3024C1.04681 20.1702 0.848959 19.9775 0.711112 19.7439C0.573265 19.5104 0.500396 19.2445 0.499999 18.9736L0.5 2.02637C0.500397 1.7555 0.573266 1.48963 0.711113 1.25609C0.84896 1.02255 1.04681 0.829774 1.28432 0.697586C1.52411 0.563312 1.79556 0.495193 2.07064 0.500264C2.34572 0.505335 2.61446 0.583411 2.84909 0.726431L16.7659 9.20102C16.9905 9.33609 17.1761 9.5267 17.3047 9.75432C17.4334 9.98195 17.5006 10.2388 17.5 10.5Z" fill="#338778"/>
</svg>
