<svg width="39" height="40" viewBox="0 0 39 40" fill="none" xmlns="http://www.w3.org/2000/svg">
<path d="M36.5625 0H31.6875C31.041 0 30.421 0.23423 29.9639 0.651163C29.5068 1.0681 29.25 1.63358 29.25 2.22321V40H39V2.22321C39 1.63358 38.7432 1.0681 38.2861 0.651163C37.829 0.23423 37.209 0 36.5625 0ZM21.9375 13.3393H17.0625C16.416 13.3393 15.796 13.5735 15.3389 13.9904C14.8818 14.4074 14.625 14.9728 14.625 15.5625V40H24.375V15.5625C24.375 14.9728 24.1182 14.4074 23.6611 13.9904C23.204 13.5735 22.584 13.3393 21.9375 13.3393ZM7.3125 26.6785H2.4375C1.79103 26.6785 1.17105 26.9128 0.713927 27.3297C0.256807 27.7466 0 28.3121 0 28.9017V40H9.75V28.9017C9.75 28.3121 9.49319 27.7466 9.03607 27.3297C8.57895 26.9128 7.95897 26.6785 7.3125 26.6785Z" fill="url(#paint0_linear_571_501)"/>
<defs>
<linearGradient id="paint0_linear_571_501" x1="-8.5" y1="10.5263" x2="20.935" y2="38.4895" gradientUnits="userSpaceOnUse">
<stop stop-color="#C9E50B"/>
<stop offset="1" stop-color="#338778"/>
</linearGradient>
</defs>
</svg>
