<svg width="23" height="29" viewBox="0 0 23 29" fill="none" xmlns="http://www.w3.org/2000/svg">
<path d="M20.814 12.5984V9.65087C20.814 4.32903 16.6371 0 11.5 0C6.36289 0 2.18603 4.32794 2.18603 9.65087V10.0587H5.85914V9.65087C5.85914 6.42775 8.38835 3.80598 11.5 3.80598C14.6117 3.80598 17.1409 6.42666 17.1409 9.65087V12.5984H3C1.34314 12.5984 0 13.9416 0 15.5984V26C0 27.6569 1.34315 29 3 29H20C21.6569 29 23 27.6569 23 26V14.7844C23 13.5771 22.0213 12.5984 20.814 12.5984ZM13.8844 25.2364H9.11457L10.397 21.2489C9.98092 21.0371 9.63023 20.709 9.38453 20.3016C9.13883 19.8943 9.00788 19.4239 9.00648 18.9435C9.00648 18.2586 9.26908 17.6017 9.73651 17.1173C10.2039 16.633 10.8379 16.3609 11.499 16.3609C12.16 16.3609 12.794 16.633 13.2614 17.1173C13.7288 17.6017 13.9914 18.2586 13.9914 18.9435C13.9914 19.957 13.4226 20.8248 12.6019 21.2489L13.8844 25.2364Z" fill="#338778"/>
</svg>
