<svg width="40" height="40" viewBox="0 0 40 40" fill="none" xmlns="http://www.w3.org/2000/svg">
<circle cx="20" cy="20" r="20" fill="#338778"/>
<path d="M9.48349 20.3166C9.1739 20.0287 9 19.6386 9 19.2318C9 18.8251 9.1739 18.4349 9.48349 18.1471L18.8517 9.44891C19.1616 9.16146 19.5818 9 20.0199 9C20.458 9 20.8782 9.16146 21.1882 9.44891L30.5564 18.1471C30.8482 18.4383 31.0072 18.8232 30.9998 19.2208C30.9924 19.6185 30.8192 19.9981 30.5167 20.2797C30.2134 20.5606 29.8046 20.7214 29.3762 20.7282C28.9479 20.7351 28.5334 20.5875 28.2198 20.3166L21.6731 14.238L21.6731 29.465C21.6731 29.8721 21.4989 30.2626 21.1889 30.5504C20.8789 30.8383 20.4584 31 20.0199 31C19.5815 31 19.161 30.8383 18.8509 30.5504C18.5409 30.2626 18.3667 29.8721 18.3667 29.465L18.3667 14.238L11.82 20.3166C11.51 20.604 11.0899 20.7655 10.6518 20.7655C10.2137 20.7655 9.79346 20.604 9.48349 20.3166Z" fill="white"/>
</svg>
