<svg width="25" height="30" viewBox="0 0 25 30" fill="none" xmlns="http://www.w3.org/2000/svg">
<path d="M22.9167 13.125H20.8333V7.5C20.8333 3.375 17.0833 0 12.5 0C7.91667 0 4.16667 3.375 4.16667 7.5V13.125H2.08333C1.04167 13.125 0 14.0625 0 15V28.125C0 29.0625 1.04167 30 2.08333 30H22.9167C23.9583 30 25 29.0625 25 28.125V15C25 14.0625 23.9583 13.125 22.9167 13.125ZM14.5833 26.25H10.4167L11.25 22.125C10.2083 21.75 9.375 20.625 9.375 19.6875C9.375 18.1875 10.8333 16.875 12.5 16.875C14.1667 16.875 15.625 18.1875 15.625 19.6875C15.625 20.8125 15 21.75 13.75 22.125L14.5833 26.25ZM16.6667 13.125H8.33333V7.5C8.33333 5.4375 10.2083 3.75 12.5 3.75C14.7917 3.75 16.6667 5.4375 16.6667 7.5V13.125Z" fill="#838383"/>
</svg>
