<svg width="40" height="40" viewBox="0 0 40 40" fill="none" xmlns="http://www.w3.org/2000/svg">
<path d="M20.5756 39.1209C20.0523 39.6838 19.3429 40 18.6033 40C17.8638 40 17.1544 39.6838 16.6311 39.1209L0.816199 22.0879C0.293561 21.5243 0 20.7603 0 19.9638C0 19.1672 0.293561 18.4033 0.816199 17.8397L16.6311 0.806635C17.1605 0.275971 17.8603 -0.0130035 18.5834 0.000449496C19.3064 0.0139025 19.9965 0.328735 20.5086 0.878774C21.0193 1.43026 21.3116 2.1735 21.3241 2.95227C21.3366 3.73105 21.0683 4.48472 20.5756 5.05487L9.52371 16.958H37.2091C37.9493 16.958 38.6592 17.2746 39.1826 17.8383C39.706 18.402 40 19.1666 40 19.9638C40 20.761 39.706 21.5255 39.1826 22.0892C38.6592 22.6529 37.9493 22.9696 37.2091 22.9696H9.52371L20.5756 34.8727C21.0982 35.4363 21.3918 36.2003 21.3918 36.9968C21.3918 37.7934 21.0982 38.5573 20.5756 39.1209Z" fill="white"/>
</svg>
