<svg width="17" height="15" viewBox="0 0 17 15" fill="none" xmlns="http://www.w3.org/2000/svg">
<path fill-rule="evenodd" clip-rule="evenodd" d="M2.52469 8.2499L7.91534 13.7182C8.05412 13.859 8.13208 14.05 8.13208 14.2491C8.13208 14.4483 8.05412 14.6393 7.91534 14.7801C7.77656 14.9209 7.58834 15 7.39207 15C7.19581 15 7.00759 14.9209 6.86881 14.7801L0.217131 8.03093C0.148304 7.96127 0.0936966 7.87852 0.0564377 7.78741C0.0191788 7.69631 0 7.59864 0 7.5C0 7.40136 0.0191788 7.30369 0.0564377 7.21259C0.0936966 7.12148 0.148304 7.03873 0.217131 6.96907L6.86881 0.219919C7.00759 0.0791073 7.19581 0 7.39207 0C7.58834 0 7.77656 0.0791073 7.91534 0.219919C8.05412 0.360732 8.13208 0.551714 8.13208 0.750853C8.13208 0.949991 8.05412 1.14097 7.91534 1.28179L2.52471 6.75009H16.2611C16.4571 6.75009 16.6451 6.82909 16.7837 6.96973C16.9223 7.11036 17.0001 7.3011 17.0001 7.49999C17.0001 7.69888 16.9223 7.88962 16.7837 8.03025C16.6451 8.17089 16.4571 8.2499 16.2611 8.2499H2.52469Z" fill="#338778"/>
</svg>
