<svg width="219" height="12" viewBox="0 0 219 12" fill="none" xmlns="http://www.w3.org/2000/svg">
<path d="M0 6.14648L10 11.92V0.372982L0 6.14648ZM218 7.14648C218.552 7.14648 219 6.69877 219 6.14648C219 5.5942 218.552 5.14648 218 5.14648V7.14648ZM2.47727 7.14648C3.02956 7.14648 3.47727 6.69877 3.47727 6.14648C3.47727 5.5942 3.02956 5.14648 2.47727 5.14648V7.14648ZM7.43182 5.14648C6.87953 5.14648 6.43182 5.5942 6.43182 6.14648C6.43182 6.69877 6.87953 7.14648 7.43182 7.14648V5.14648ZM12.3864 7.14648C12.9386 7.14648 13.3864 6.69877 13.3864 6.14648C13.3864 5.5942 12.9386 5.14648 12.3864 5.14648V7.14648ZM17.3409 5.14648C16.7886 5.14648 16.3409 5.5942 16.3409 6.14648C16.3409 6.69877 16.7886 7.14648 17.3409 7.14648V5.14648ZM22.2955 7.14648C22.8477 7.14648 23.2955 6.69877 23.2955 6.14648C23.2955 5.5942 22.8477 5.14648 22.2955 5.14648V7.14648ZM27.25 5.14648C26.6977 5.14648 26.25 5.5942 26.25 6.14648C26.25 6.69877 26.6977 7.14648 27.25 7.14648V5.14648ZM32.2045 7.14648C32.7568 7.14648 33.2045 6.69877 33.2045 6.14648C33.2045 5.5942 32.7568 5.14648 32.2045 5.14648V7.14648ZM37.1591 5.14648C36.6068 5.14648 36.1591 5.5942 36.1591 6.14648C36.1591 6.69877 36.6068 7.14648 37.1591 7.14648V5.14648ZM42.1136 7.14648C42.6659 7.14648 43.1136 6.69877 43.1136 6.14648C43.1136 5.5942 42.6659 5.14648 42.1136 5.14648V7.14648ZM47.0682 5.14648C46.5159 5.14648 46.0682 5.5942 46.0682 6.14648C46.0682 6.69877 46.5159 7.14648 47.0682 7.14648V5.14648ZM52.0227 7.14648C52.575 7.14648 53.0227 6.69877 53.0227 6.14648C53.0227 5.5942 52.575 5.14648 52.0227 5.14648V7.14648ZM56.9773 5.14648C56.425 5.14648 55.9773 5.5942 55.9773 6.14648C55.9773 6.69877 56.425 7.14648 56.9773 7.14648V5.14648ZM61.9318 7.14648C62.4841 7.14648 62.9318 6.69877 62.9318 6.14648C62.9318 5.5942 62.4841 5.14648 61.9318 5.14648V7.14648ZM66.8864 5.14648C66.3341 5.14648 65.8864 5.5942 65.8864 6.14648C65.8864 6.69877 66.3341 7.14648 66.8864 7.14648V5.14648ZM71.8409 7.14648C72.3932 7.14648 72.8409 6.69877 72.8409 6.14648C72.8409 5.5942 72.3932 5.14648 71.8409 5.14648V7.14648ZM76.7954 5.14648C76.2432 5.14648 75.7954 5.5942 75.7954 6.14648C75.7954 6.69877 76.2432 7.14648 76.7954 7.14648V5.14648ZM81.75 7.14648C82.3023 7.14648 82.75 6.69877 82.75 6.14648C82.75 5.5942 82.3023 5.14648 81.75 5.14648V7.14648ZM86.7045 5.14648C86.1523 5.14648 85.7045 5.5942 85.7045 6.14648C85.7045 6.69877 86.1523 7.14648 86.7045 7.14648V5.14648ZM91.6591 7.14648C92.2114 7.14648 92.6591 6.69877 92.6591 6.14648C92.6591 5.5942 92.2114 5.14648 91.6591 5.14648V7.14648ZM96.6136 5.14648C96.0613 5.14648 95.6136 5.5942 95.6136 6.14648C95.6136 6.69877 96.0613 7.14648 96.6136 7.14648V5.14648ZM101.568 7.14648C102.12 7.14648 102.568 6.69877 102.568 6.14648C102.568 5.5942 102.12 5.14648 101.568 5.14648V7.14648ZM106.523 5.14648C105.97 5.14648 105.523 5.5942 105.523 6.14648C105.523 6.69877 105.97 7.14648 106.523 7.14648V5.14648ZM111.477 7.14648C112.03 7.14648 112.477 6.69877 112.477 6.14648C112.477 5.5942 112.03 5.14648 111.477 5.14648V7.14648ZM116.432 5.14648C115.88 5.14648 115.432 5.5942 115.432 6.14648C115.432 6.69877 115.88 7.14648 116.432 7.14648V5.14648ZM121.386 7.14648C121.939 7.14648 122.386 6.69877 122.386 6.14648C122.386 5.5942 121.939 5.14648 121.386 5.14648V7.14648ZM126.341 5.14648C125.789 5.14648 125.341 5.5942 125.341 6.14648C125.341 6.69877 125.789 7.14648 126.341 7.14648V5.14648ZM131.295 7.14648C131.848 7.14648 132.295 6.69877 132.295 6.14648C132.295 5.5942 131.848 5.14648 131.295 5.14648V7.14648ZM136.25 5.14648C135.698 5.14648 135.25 5.5942 135.25 6.14648C135.25 6.69877 135.698 7.14648 136.25 7.14648V5.14648ZM141.205 7.14648C141.757 7.14648 142.205 6.69877 142.205 6.14648C142.205 5.5942 141.757 5.14648 141.205 5.14648V7.14648ZM146.159 5.14648C145.607 5.14648 145.159 5.5942 145.159 6.14648C145.159 6.69877 145.607 7.14648 146.159 7.14648V5.14648ZM151.114 7.14648C151.666 7.14648 152.114 6.69877 152.114 6.14648C152.114 5.5942 151.666 5.14648 151.114 5.14648V7.14648ZM156.068 5.14648C155.516 5.14648 155.068 5.5942 155.068 6.14648C155.068 6.69877 155.516 7.14648 156.068 7.14648V5.14648ZM161.023 7.14648C161.575 7.14648 162.023 6.69877 162.023 6.14648C162.023 5.5942 161.575 5.14648 161.023 5.14648V7.14648ZM165.977 5.14648C165.425 5.14648 164.977 5.5942 164.977 6.14648C164.977 6.69877 165.425 7.14648 165.977 7.14648V5.14648ZM170.932 7.14648C171.484 7.14648 171.932 6.69877 171.932 6.14648C171.932 5.5942 171.484 5.14648 170.932 5.14648V7.14648ZM175.886 5.14648C175.334 5.14648 174.886 5.5942 174.886 6.14648C174.886 6.69877 175.334 7.14648 175.886 7.14648V5.14648ZM180.841 7.14648C181.393 7.14648 181.841 6.69877 181.841 6.14648C181.841 5.5942 181.393 5.14648 180.841 5.14648V7.14648ZM185.795 5.14648C185.243 5.14648 184.795 5.5942 184.795 6.14648C184.795 6.69877 185.243 7.14648 185.795 7.14648V5.14648ZM190.75 7.14648C191.302 7.14648 191.75 6.69877 191.75 6.14648C191.75 5.5942 191.302 5.14648 190.75 5.14648V7.14648ZM195.705 5.14648C195.152 5.14648 194.705 5.5942 194.705 6.14648C194.705 6.69877 195.152 7.14648 195.705 7.14648V5.14648ZM200.659 7.14648C201.211 7.14648 201.659 6.69877 201.659 6.14648C201.659 5.5942 201.211 5.14648 200.659 5.14648V7.14648ZM205.614 5.14648C205.061 5.14648 204.614 5.5942 204.614 6.14648C204.614 6.69877 205.061 7.14648 205.614 7.14648V5.14648ZM210.568 7.14648C211.12 7.14648 211.568 6.69877 211.568 6.14648C211.568 5.5942 211.12 5.14648 210.568 5.14648V7.14648ZM215.523 5.14648C214.97 5.14648 214.523 5.5942 214.523 6.14648C214.523 6.69877 214.97 7.14648 215.523 7.14648V5.14648ZM7.43182 7.14648H12.3864V5.14648H7.43182V7.14648ZM17.3409 7.14648H22.2955V5.14648H17.3409V7.14648ZM27.25 7.14648H32.2045V5.14648H27.25V7.14648ZM37.1591 7.14648H42.1136V5.14648H37.1591V7.14648ZM47.0682 7.14648H52.0227V5.14648H47.0682V7.14648ZM56.9773 7.14648H61.9318V5.14648H56.9773V7.14648ZM66.8864 7.14648H71.8409V5.14648H66.8864V7.14648ZM76.7954 7.14648H81.75V5.14648H76.7954V7.14648ZM86.7045 7.14648H91.6591V5.14648H86.7045V7.14648ZM96.6136 7.14648H101.568V5.14648H96.6136V7.14648ZM106.523 7.14648H111.477V5.14648H106.523V7.14648ZM116.432 7.14648H121.386V5.14648H116.432V7.14648ZM126.341 7.14648H131.295V5.14648H126.341V7.14648ZM136.25 7.14648H141.205V5.14648H136.25V7.14648ZM146.159 7.14648H151.114V5.14648H146.159V7.14648ZM156.068 7.14648H161.023V5.14648H156.068V7.14648ZM165.977 7.14648H170.932V5.14648H165.977V7.14648ZM175.886 7.14648H180.841V5.14648H175.886V7.14648ZM185.795 7.14648H190.75V5.14648H185.795V7.14648ZM195.705 7.14648H200.659V5.14648H195.705V7.14648ZM205.614 7.14648H210.568V5.14648H205.614V7.14648ZM215.523 7.14648H218V5.14648H215.523V7.14648Z" fill="#068C1F"/>
</svg>
