<svg width="99" height="12" viewBox="0 0 99 12" fill="none" xmlns="http://www.w3.org/2000/svg">
<path d="M0 6.14648L10 11.92L10 0.372982L0 6.14648ZM98 7.14649C98.5523 7.14649 99 6.69878 99 6.14649C99 5.59421 98.5523 5.14649 98 5.14649L98 7.14649ZM2.45 7.14648C3.00228 7.14648 3.45 6.69877 3.45 6.14648C3.45 5.5942 3.00228 5.14648 2.45 5.14648L2.45 7.14648ZM7.35 5.14649C6.79772 5.14648 6.35 5.5942 6.35 6.14648C6.35 6.69877 6.79772 7.14648 7.35 7.14649L7.35 5.14649ZM12.25 7.14649C12.8023 7.14649 13.25 6.69877 13.25 6.14649C13.25 5.5942 12.8023 5.14649 12.25 5.14649L12.25 7.14649ZM17.15 5.14649C16.5977 5.14649 16.15 5.5942 16.15 6.14649C16.15 6.69877 16.5977 7.14649 17.15 7.14649L17.15 5.14649ZM22.05 7.14649C22.6023 7.14649 23.05 6.69877 23.05 6.14649C23.05 5.5942 22.6023 5.14649 22.05 5.14649L22.05 7.14649ZM26.95 5.14649C26.3977 5.14649 25.95 5.5942 25.95 6.14649C25.95 6.69877 26.3977 7.14649 26.95 7.14649L26.95 5.14649ZM31.85 7.14649C32.4023 7.14649 32.85 6.69877 32.85 6.14649C32.85 5.5942 32.4023 5.14649 31.85 5.14649L31.85 7.14649ZM36.75 5.14649C36.1977 5.14649 35.75 5.5942 35.75 6.14649C35.75 6.69877 36.1977 7.14649 36.75 7.14649L36.75 5.14649ZM41.65 7.14649C42.2023 7.14649 42.65 6.69877 42.65 6.14649C42.65 5.5942 42.2023 5.14649 41.65 5.14649L41.65 7.14649ZM46.55 5.14649C45.9977 5.14649 45.55 5.5942 45.55 6.14649C45.55 6.69877 45.9977 7.14649 46.55 7.14649L46.55 5.14649ZM51.45 7.14649C52.0023 7.14649 52.45 6.69877 52.45 6.14649C52.45 5.5942 52.0023 5.14649 51.45 5.14649L51.45 7.14649ZM56.35 5.14649C55.7977 5.14649 55.35 5.5942 55.35 6.14649C55.35 6.69877 55.7977 7.14649 56.35 7.14649L56.35 5.14649ZM61.25 7.14649C61.8023 7.14649 62.25 6.69877 62.25 6.14649C62.25 5.59421 61.8023 5.14649 61.25 5.14649L61.25 7.14649ZM66.15 5.14649C65.5977 5.14649 65.15 5.59421 65.15 6.14649C65.15 6.69877 65.5977 7.14649 66.15 7.14649L66.15 5.14649ZM71.05 7.14649C71.6023 7.14649 72.05 6.69878 72.05 6.14649C72.05 5.59421 71.6023 5.14649 71.05 5.14649L71.05 7.14649ZM75.95 5.14649C75.3977 5.14649 74.95 5.59421 74.95 6.14649C74.95 6.69878 75.3977 7.14649 75.95 7.14649L75.95 5.14649ZM80.85 7.14649C81.4023 7.14649 81.85 6.69878 81.85 6.14649C81.85 5.59421 81.4023 5.14649 80.85 5.14649L80.85 7.14649ZM85.75 5.14649C85.1977 5.14649 84.75 5.59421 84.75 6.14649C84.75 6.69878 85.1977 7.14649 85.75 7.14649L85.75 5.14649ZM90.65 7.14649C91.2023 7.14649 91.65 6.69878 91.65 6.14649C91.65 5.59421 91.2023 5.14649 90.65 5.14649L90.65 7.14649ZM95.55 5.14649C94.9977 5.14649 94.55 5.59421 94.55 6.14649C94.55 6.69878 94.9977 7.14649 95.55 7.14649L95.55 5.14649ZM7.35 7.14649L12.25 7.14649L12.25 5.14649L7.35 5.14649L7.35 7.14649ZM17.15 7.14649L22.05 7.14649L22.05 5.14649L17.15 5.14649L17.15 7.14649ZM26.95 7.14649L31.85 7.14649L31.85 5.14649L26.95 5.14649L26.95 7.14649ZM36.75 7.14649L41.65 7.14649L41.65 5.14649L36.75 5.14649L36.75 7.14649ZM46.55 7.14649L51.45 7.14649L51.45 5.14649L46.55 5.14649L46.55 7.14649ZM56.35 7.14649L61.25 7.14649L61.25 5.14649L56.35 5.14649L56.35 7.14649ZM66.15 7.14649L71.05 7.14649L71.05 5.14649L66.15 5.14649L66.15 7.14649ZM75.95 7.14649L80.85 7.14649L80.85 5.14649L75.95 5.14649L75.95 7.14649ZM85.75 7.14649L90.65 7.14649L90.65 5.14649L85.75 5.14649L85.75 7.14649ZM95.55 7.14649L98 7.14649L98 5.14649L95.55 5.14649L95.55 7.14649Z" fill="#068C1F"/>
</svg>

