<svg width="41" height="33" viewBox="0 0 41 33" fill="none" xmlns="http://www.w3.org/2000/svg">
<path d="M6.26456 25.0273H1.25291C0.920619 25.0273 0.601936 25.1557 0.366969 25.3843C0.132003 25.6129 0 25.9229 0 26.2461L0 31.1211C0 31.4443 0.132003 31.7543 0.366969 31.9829C0.601936 32.2114 0.920619 32.3398 1.25291 32.3398H6.26456C6.59685 32.3398 6.91554 32.2114 7.1505 31.9829C7.38547 31.7543 7.51747 31.4443 7.51747 31.1211V26.2461C7.51747 25.9229 7.38547 25.6129 7.1505 25.3843C6.91554 25.1557 6.59685 25.0273 6.26456 25.0273ZM6.26456 0.652344H1.25291C0.920619 0.652344 0.601936 0.780747 0.366969 1.00931C0.132003 1.23787 0 1.54786 0 1.87109L0 6.74609C0 7.06933 0.132003 7.37932 0.366969 7.60788C0.601936 7.83644 0.920619 7.96484 1.25291 7.96484H6.26456C6.59685 7.96484 6.91554 7.83644 7.1505 7.60788C7.38547 7.37932 7.51747 7.06933 7.51747 6.74609V1.87109C7.51747 1.54786 7.38547 1.23787 7.1505 1.00931C6.91554 0.780747 6.59685 0.652344 6.26456 0.652344ZM6.26456 12.8398H1.25291C0.920619 12.8398 0.601936 12.9682 0.366969 13.1968C0.132003 13.4254 0 13.7354 0 14.0586L0 18.9336C0 19.2568 0.132003 19.5668 0.366969 19.7954C0.601936 20.0239 0.920619 20.1523 1.25291 20.1523H6.26456C6.59685 20.1523 6.91554 20.0239 7.1505 19.7954C7.38547 19.5668 7.51747 19.2568 7.51747 18.9336V14.0586C7.51747 13.7354 7.38547 13.4254 7.1505 13.1968C6.91554 12.9682 6.59685 12.8398 6.26456 12.8398ZM38.8403 26.2461H13.782C13.4497 26.2461 13.1311 26.3745 12.8961 26.6031C12.6611 26.8316 12.5291 27.1416 12.5291 27.4648V29.9023C12.5291 30.2256 12.6611 30.5356 12.8961 30.7641C13.1311 30.9927 13.4497 31.1211 13.782 31.1211H38.8403C39.1726 31.1211 39.4912 30.9927 39.7262 30.7641C39.9612 30.5356 40.0932 30.2256 40.0932 29.9023V27.4648C40.0932 27.1416 39.9612 26.8316 39.7262 26.6031C39.4912 26.3745 39.1726 26.2461 38.8403 26.2461ZM38.8403 1.87109H13.782C13.4497 1.87109 13.1311 1.9995 12.8961 2.22806C12.6611 2.45662 12.5291 2.76661 12.5291 3.08984V5.52734C12.5291 5.85058 12.6611 6.16057 12.8961 6.38913C13.1311 6.61769 13.4497 6.74609 13.782 6.74609H38.8403C39.1726 6.74609 39.4912 6.61769 39.7262 6.38913C39.9612 6.16057 40.0932 5.85058 40.0932 5.52734V3.08984C40.0932 2.76661 39.9612 2.45662 39.7262 2.22806C39.4912 1.9995 39.1726 1.87109 38.8403 1.87109ZM38.8403 14.0586H13.782C13.4497 14.0586 13.1311 14.187 12.8961 14.4156C12.6611 14.6441 12.5291 14.9541 12.5291 15.2773V17.7148C12.5291 18.0381 12.6611 18.3481 12.8961 18.5766C13.1311 18.8052 13.4497 18.9336 13.782 18.9336H38.8403C39.1726 18.9336 39.4912 18.8052 39.7262 18.5766C39.9612 18.3481 40.0932 18.0381 40.0932 17.7148V15.2773C40.0932 14.9541 39.9612 14.6441 39.7262 14.4156C39.4912 14.187 39.1726 14.0586 38.8403 14.0586Z" fill="url(#paint0_linear_499_202)"/>
<defs>
<linearGradient id="paint0_linear_499_202" x1="-8.73826" y1="8.99116" x2="14.1081" y2="37.1568" gradientUnits="userSpaceOnUse">
<stop stop-color="#C9E50B"/>
<stop offset="1" stop-color="#338778"/>
</linearGradient>
</defs>
</svg>
