<svg width="65" height="60" viewBox="0 0 65 60" fill="none" xmlns="http://www.w3.org/2000/svg">
<path d="M64.9573 19.2416C64.9573 18.3765 64.3245 17.6741 63.545 17.6741C62.7655 17.6741 62.1327 18.3765 62.1327 19.2416V29.2417C57.0618 20.2323 45.6964 13.9531 32.4786 13.9531C19.2609 13.9531 7.89545 20.2369 2.82459 29.2417V19.2416C2.82459 18.3765 2.19178 17.6741 1.4123 17.6741C0.63281 17.6741 0 18.3765 0 19.2416V39.3628C0 39.4 0.00838159 39.4326 0.00838159 39.4698C0.00838159 39.5721 0 39.6698 0 39.7675C0 39.8466 0 39.921 0 40.0001C0.201158 51.0653 14.6594 60.0004 32.4745 60.0004C50.2895 60.0004 64.7478 51.0653 64.9489 40.0001C64.9489 39.921 64.9489 39.8466 64.9489 39.7675C64.9489 39.6652 64.9405 39.5675 64.9405 39.4698C64.9405 39.4326 64.9489 39.4 64.9489 39.3628V19.2416H64.9573Z" fill="#338778"/>
<path d="M49.4267 30.6953H15.5299C10.9668 30.6953 7.26758 34.4437 7.26758 39.0675C7.26758 43.6914 10.9668 47.4398 15.5299 47.4398H49.4267C53.9898 47.4398 57.689 43.6914 57.689 39.0675C57.689 34.4437 53.9898 30.6953 49.4267 30.6953Z" fill="white"/>
<path d="M15.8989 42.1911C17.5296 42.1911 18.8515 40.8376 18.8515 39.1678C18.8515 37.4981 17.5296 36.1445 15.8989 36.1445C14.2682 36.1445 12.9463 37.4981 12.9463 39.1678C12.9463 40.8376 14.2682 42.1911 15.8989 42.1911Z" fill="#338778"/>
<path d="M49.0581 42.1911C50.6888 42.1911 52.0107 40.8376 52.0107 39.1678C52.0107 37.4981 50.6888 36.1445 49.0581 36.1445C47.4274 36.1445 46.1055 37.4981 46.1055 39.1678C46.1055 40.8376 47.4274 42.1911 49.0581 42.1911Z" fill="#338778"/>
<path d="M20.8809 0C20.9399 3.40005 21.9892 6.39545 24.1106 8.56758C26.2319 10.7397 29.1572 11.8095 32.4778 11.8746C32.4187 8.47455 31.3694 5.47916 29.2481 3.30703C27.1268 1.1349 24.2059 0.0604661 20.8809 0Z" fill="#338778"/>
<path d="M44.0745 0C44.0154 3.40005 42.9661 6.39545 40.8448 8.56758C38.7234 10.7397 35.7981 11.8095 32.4775 11.8746C32.5366 8.47455 33.5859 5.47916 35.7072 3.30703C37.8286 1.1349 40.7494 0.0604661 44.0745 0Z" fill="#338778"/>
</svg>
