<svg width="170" height="170" viewBox="0 0 170 170" fill="none" xmlns="http://www.w3.org/2000/svg">
<g filter="url(#filter0_d_1677_958)">
<path d="M82 146C46.1015 146 17 116.899 17 81C17 45.1015 46.1015 16 82 16C117.899 16 147 45.1015 147 81L147 146L82 146Z" fill="#338778"/>
<path d="M124.399 67.3591C124.399 66.2638 123.598 65.3747 122.611 65.3747C121.624 65.3747 120.823 66.2638 120.823 67.3591V80.0189C114.403 68.6133 100.015 60.6641 83.2819 60.6641C66.5486 60.6641 52.1604 68.6192 45.7409 80.0189V67.3591C45.7409 66.2638 44.9398 65.3747 43.953 65.3747C42.9662 65.3747 42.165 66.2638 42.165 67.3591V92.8319C42.165 92.879 42.1756 92.9202 42.1756 92.9673C42.1756 93.0968 42.165 93.2205 42.165 93.3441C42.165 93.4442 42.165 93.5385 42.165 93.6386C42.4197 107.647 60.7233 118.958 83.2766 118.958C105.83 118.958 124.133 107.647 124.388 93.6386C124.388 93.5385 124.388 93.4442 124.388 93.3441C124.388 93.2146 124.377 93.0909 124.377 92.9673C124.377 92.9202 124.388 92.879 124.388 92.8319V67.3591H124.399Z" fill="#C9E50B"/>
<path d="M104.737 81.8594H61.8251C56.0483 81.8594 51.3652 86.6047 51.3652 92.4583C51.3652 98.312 56.0483 103.057 61.8251 103.057H104.737C110.514 103.057 115.197 98.312 115.197 92.4583C115.197 86.6047 110.514 81.8594 104.737 81.8594Z" fill="#338778"/>
<path d="M62.2916 96.4126C64.356 96.4126 66.0295 94.699 66.0295 92.5852C66.0295 90.4714 64.356 88.7578 62.2916 88.7578C60.2272 88.7578 58.5537 90.4714 58.5537 92.5852C58.5537 94.699 60.2272 96.4126 62.2916 96.4126Z" fill="#C9E50B"/>
<path d="M104.272 96.4126C106.336 96.4126 108.01 94.699 108.01 92.5852C108.01 90.4714 106.336 88.7578 104.272 88.7578C102.208 88.7578 100.534 90.4714 100.534 92.5852C100.534 94.699 102.208 96.4126 104.272 96.4126Z" fill="#C9E50B"/>
<path d="M68.6006 43C68.6753 47.3043 70.0037 51.0964 72.6893 53.8463C75.3748 56.5961 79.0782 57.9504 83.2819 58.0328C83.2071 53.7285 81.8787 49.9364 79.1932 47.1866C76.5077 44.4367 72.81 43.0765 68.6006 43Z" fill="#C9E50B"/>
<path d="M97.9635 43C97.8888 47.3043 96.5604 51.0964 93.8748 53.8463C91.1893 56.5961 87.4859 57.9504 83.2822 58.0328C83.357 53.7285 84.6854 49.9364 87.3709 47.1866C90.0564 44.4367 93.7541 43.0765 97.9635 43Z" fill="#C9E50B"/>
</g>
<defs>
<filter id="filter0_d_1677_958" x="0" y="0" width="170" height="170" filterUnits="userSpaceOnUse" color-interpolation-filters="sRGB">
<feFlood flood-opacity="0" result="BackgroundImageFix"/>
<feColorMatrix in="SourceAlpha" type="matrix" values="0 0 0 0 0 0 0 0 0 0 0 0 0 0 0 0 0 0 127 0" result="hardAlpha"/>
<feOffset dx="3" dy="4"/>
<feGaussianBlur stdDeviation="10"/>
<feComposite in2="hardAlpha" operator="out"/>
<feColorMatrix type="matrix" values="0 0 0 0 0 0 0 0 0 0 0 0 0 0 0 0 0 0 0.25 0"/>
<feBlend mode="normal" in2="BackgroundImageFix" result="effect1_dropShadow_1677_958"/>
<feBlend mode="normal" in="SourceGraphic" in2="effect1_dropShadow_1677_958" result="shape"/>
</filter>
</defs>
</svg>
