<svg width="110" height="102" viewBox="0 0 110 102" fill="none" xmlns="http://www.w3.org/2000/svg">
<path d="M109.299 32.5216C109.299 31.0659 108.235 29.8841 106.923 29.8841C105.611 29.8841 104.547 31.0659 104.547 32.5216V49.3482C96.0143 34.1886 76.8904 23.623 54.6497 23.623C32.409 23.623 13.2852 34.1964 4.75276 49.3482V32.5216C4.75276 31.0659 3.68797 29.8841 2.37638 29.8841C1.06479 29.8841 0 31.0659 0 32.5216V66.3783C0 66.4409 0.0141032 66.4957 0.0141032 66.5583C0.0141032 66.7305 0 66.8949 0 67.0592C0 67.1922 0 67.3175 0 67.4505C0.338476 86.0694 24.6664 101.104 54.6427 101.104C84.6189 101.104 108.947 86.0694 109.285 67.4505C109.285 67.3175 109.285 67.1922 109.285 67.0592C109.285 66.887 109.271 66.7227 109.271 66.5583C109.271 66.4957 109.285 66.4409 109.285 66.3783V32.5216H109.299Z" fill="#3B8600"/>
<path d="M83.1669 51.7988H26.131C18.4529 51.7988 12.2285 58.106 12.2285 65.8862C12.2285 73.6665 18.4529 79.9736 26.131 79.9736H83.1669C90.845 79.9736 97.0694 73.6665 97.0694 65.8862C97.0694 58.106 90.845 51.7988 83.1669 51.7988Z" fill="#FCFFD7"/>
<path d="M26.7514 71.1371C29.4952 71.1371 31.7195 68.8595 31.7195 66.05C31.7195 63.2405 29.4952 60.9629 26.7514 60.9629C24.0075 60.9629 21.7832 63.2405 21.7832 66.05C21.7832 68.8595 24.0075 71.1371 26.7514 71.1371Z" fill="#54B435"/>
<path d="M82.5482 71.1371C85.2921 71.1371 87.5164 68.8595 87.5164 66.05C87.5164 63.2405 85.2921 60.9629 82.5482 60.9629C79.8044 60.9629 77.5801 63.2405 77.5801 66.05C77.5801 68.8595 79.8044 71.1371 82.5482 71.1371Z" fill="#54B435"/>
<path d="M35.1357 0.146484C35.2351 5.86753 37.0007 10.9077 40.5701 14.5626C44.1396 18.2175 49.0619 20.0175 54.6491 20.1271C54.5498 14.4061 52.7842 9.3659 49.2147 5.71101C45.6453 2.05611 40.7307 0.248227 35.1357 0.146484Z" fill="#54B435"/>
<path d="M74.1628 0.146484C74.0634 5.86753 72.2978 10.9077 68.7284 14.5626C65.159 18.2175 60.2367 20.0175 54.6494 20.1271C54.7488 14.4061 56.5144 9.3659 60.0838 5.71101C63.6532 2.05611 68.5679 0.248227 74.1628 0.146484Z" fill="#54B435"/>
</svg>
