<svg width="203" height="208" viewBox="0 0 203 208" fill="none" xmlns="http://www.w3.org/2000/svg">
<path fill-rule="evenodd" clip-rule="evenodd" d="M82.0925 154.312C83.7203 154.312 84.6663 152.471 83.7187 151.147L43.6742 95.2127C42.8765 94.0984 41.2196 94.0984 40.4218 95.2127L0.377318 151.147C-0.570208 152.471 0.375799 154.312 2.00353 154.312H24.5328C25.4074 154.312 26.1844 154.879 26.4213 155.721C30.2913 169.469 28.986 187 14.5017 203.695C13.3017 205.079 14.301 207.189 16.0932 206.812C30.4833 203.791 51.5498 190.664 57.5698 156.018C57.7385 155.047 58.5777 154.312 59.563 154.312H82.0925Z" fill="url(#paint0_linear_0_1)"/>
<path fill-rule="evenodd" clip-rule="evenodd" d="M200.729 96.0271C202.355 96.0271 203.301 94.1913 202.359 92.8673L136.854 0.840206C136.056 -0.280067 134.392 -0.28007 133.595 0.840204L68.09 92.8673C67.1475 94.1913 68.0941 96.0271 69.7193 96.0271H112.644C113.553 96.0271 114.35 96.6416 114.57 97.5238C124.448 137.088 115.659 179.361 94.3201 204.651C93.1248 206.068 94.1686 208.008 95.9221 207.407C116.55 200.341 164.745 163.856 158.735 98.2736C158.626 97.0878 159.549 96.0271 160.74 96.0271H200.729Z" fill="url(#paint1_linear_0_1)"/>
<defs>
<linearGradient id="paint0_linear_0_1" x1="42.048" y1="94.377" x2="42.048" y2="206.857" gradientUnits="userSpaceOnUse">
<stop stop-color="#D124FC"/>
<stop offset="0.911458" stop-color="#F5CBFF"/>
</linearGradient>
<linearGradient id="paint1_linear_0_1" x1="135.224" y1="0" x2="135.224" y2="207.519" gradientUnits="userSpaceOnUse">
<stop stop-color="#D124FC"/>
<stop offset="1" stop-color="#F5CDFF"/>
</linearGradient>
</defs>
</svg>
