<svg width="219" height="12" viewBox="0 0 219 12" fill="none" xmlns="http://www.w3.org/2000/svg">
<path d="M1 5.14648C0.447715 5.14648 0 5.5942 0 6.14648C0 6.69877 0.447715 7.14648 1 7.14648V5.14648ZM219 6.14648L209 0.372982V11.92L219 6.14648ZM3.47727 7.14648C4.02956 7.14648 4.47727 6.69877 4.47727 6.14648C4.47727 5.5942 4.02956 5.14648 3.47727 5.14648V7.14648ZM8.43182 5.14648C7.87953 5.14648 7.43182 5.5942 7.43182 6.14648C7.43182 6.69877 7.87953 7.14648 8.43182 7.14648V5.14648ZM13.3864 7.14648C13.9386 7.14648 14.3864 6.69877 14.3864 6.14648C14.3864 5.5942 13.9386 5.14648 13.3864 5.14648V7.14648ZM18.3409 5.14648C17.7886 5.14648 17.3409 5.5942 17.3409 6.14648C17.3409 6.69877 17.7886 7.14648 18.3409 7.14648V5.14648ZM23.2955 7.14648C23.8477 7.14648 24.2955 6.69877 24.2955 6.14648C24.2955 5.5942 23.8477 5.14648 23.2955 5.14648V7.14648ZM28.25 5.14648C27.6977 5.14648 27.25 5.5942 27.25 6.14648C27.25 6.69877 27.6977 7.14648 28.25 7.14648V5.14648ZM33.2045 7.14648C33.7568 7.14648 34.2045 6.69877 34.2045 6.14648C34.2045 5.5942 33.7568 5.14648 33.2045 5.14648V7.14648ZM38.1591 5.14648C37.6068 5.14648 37.1591 5.5942 37.1591 6.14648C37.1591 6.69877 37.6068 7.14648 38.1591 7.14648V5.14648ZM43.1136 7.14648C43.6659 7.14648 44.1136 6.69877 44.1136 6.14648C44.1136 5.5942 43.6659 5.14648 43.1136 5.14648V7.14648ZM48.0682 5.14648C47.5159 5.14648 47.0682 5.5942 47.0682 6.14648C47.0682 6.69877 47.5159 7.14648 48.0682 7.14648V5.14648ZM53.0227 7.14648C53.575 7.14648 54.0227 6.69877 54.0227 6.14648C54.0227 5.5942 53.575 5.14648 53.0227 5.14648V7.14648ZM57.9773 5.14648C57.425 5.14648 56.9773 5.5942 56.9773 6.14648C56.9773 6.69877 57.425 7.14648 57.9773 7.14648V5.14648ZM62.9318 7.14648C63.4841 7.14648 63.9318 6.69877 63.9318 6.14648C63.9318 5.5942 63.4841 5.14648 62.9318 5.14648V7.14648ZM67.8864 5.14648C67.3341 5.14648 66.8864 5.5942 66.8864 6.14648C66.8864 6.69877 67.3341 7.14648 67.8864 7.14648V5.14648ZM72.8409 7.14648C73.3932 7.14648 73.8409 6.69877 73.8409 6.14648C73.8409 5.5942 73.3932 5.14648 72.8409 5.14648V7.14648ZM77.7954 5.14648C77.2432 5.14648 76.7954 5.5942 76.7954 6.14648C76.7954 6.69877 77.2432 7.14648 77.7954 7.14648V5.14648ZM82.75 7.14648C83.3023 7.14648 83.75 6.69877 83.75 6.14648C83.75 5.5942 83.3023 5.14648 82.75 5.14648V7.14648ZM87.7045 5.14648C87.1523 5.14648 86.7045 5.5942 86.7045 6.14648C86.7045 6.69877 87.1523 7.14648 87.7045 7.14648V5.14648ZM92.6591 7.14648C93.2114 7.14648 93.6591 6.69877 93.6591 6.14648C93.6591 5.5942 93.2114 5.14648 92.6591 5.14648V7.14648ZM97.6136 5.14648C97.0613 5.14648 96.6136 5.5942 96.6136 6.14648C96.6136 6.69877 97.0613 7.14648 97.6136 7.14648V5.14648ZM102.568 7.14648C103.12 7.14648 103.568 6.69877 103.568 6.14648C103.568 5.5942 103.12 5.14648 102.568 5.14648V7.14648ZM107.523 5.14648C106.97 5.14648 106.523 5.5942 106.523 6.14648C106.523 6.69877 106.97 7.14648 107.523 7.14648V5.14648ZM112.477 7.14648C113.03 7.14648 113.477 6.69877 113.477 6.14648C113.477 5.5942 113.03 5.14648 112.477 5.14648V7.14648ZM117.432 5.14648C116.88 5.14648 116.432 5.5942 116.432 6.14648C116.432 6.69877 116.88 7.14648 117.432 7.14648V5.14648ZM122.386 7.14648C122.939 7.14648 123.386 6.69877 123.386 6.14648C123.386 5.5942 122.939 5.14648 122.386 5.14648V7.14648ZM127.341 5.14648C126.789 5.14648 126.341 5.5942 126.341 6.14648C126.341 6.69877 126.789 7.14648 127.341 7.14648V5.14648ZM132.295 7.14648C132.848 7.14648 133.295 6.69877 133.295 6.14648C133.295 5.5942 132.848 5.14648 132.295 5.14648V7.14648ZM137.25 5.14648C136.698 5.14648 136.25 5.5942 136.25 6.14648C136.25 6.69877 136.698 7.14648 137.25 7.14648V5.14648ZM142.205 7.14648C142.757 7.14648 143.205 6.69877 143.205 6.14648C143.205 5.5942 142.757 5.14648 142.205 5.14648V7.14648ZM147.159 5.14648C146.607 5.14648 146.159 5.5942 146.159 6.14648C146.159 6.69877 146.607 7.14648 147.159 7.14648V5.14648ZM152.114 7.14648C152.666 7.14648 153.114 6.69877 153.114 6.14648C153.114 5.5942 152.666 5.14648 152.114 5.14648V7.14648ZM157.068 5.14648C156.516 5.14648 156.068 5.5942 156.068 6.14648C156.068 6.69877 156.516 7.14648 157.068 7.14648V5.14648ZM162.023 7.14648C162.575 7.14648 163.023 6.69877 163.023 6.14648C163.023 5.5942 162.575 5.14648 162.023 5.14648V7.14648ZM166.977 5.14648C166.425 5.14648 165.977 5.5942 165.977 6.14648C165.977 6.69877 166.425 7.14648 166.977 7.14648V5.14648ZM171.932 7.14648C172.484 7.14648 172.932 6.69877 172.932 6.14648C172.932 5.5942 172.484 5.14648 171.932 5.14648V7.14648ZM176.886 5.14648C176.334 5.14648 175.886 5.5942 175.886 6.14648C175.886 6.69877 176.334 7.14648 176.886 7.14648V5.14648ZM181.841 7.14648C182.393 7.14648 182.841 6.69877 182.841 6.14648C182.841 5.5942 182.393 5.14648 181.841 5.14648V7.14648ZM186.795 5.14648C186.243 5.14648 185.795 5.5942 185.795 6.14648C185.795 6.69877 186.243 7.14648 186.795 7.14648V5.14648ZM191.75 7.14648C192.302 7.14648 192.75 6.69877 192.75 6.14648C192.75 5.5942 192.302 5.14648 191.75 5.14648V7.14648ZM196.705 5.14648C196.152 5.14648 195.705 5.5942 195.705 6.14648C195.705 6.69877 196.152 7.14648 196.705 7.14648V5.14648ZM201.659 7.14648C202.211 7.14648 202.659 6.69877 202.659 6.14648C202.659 5.5942 202.211 5.14648 201.659 5.14648V7.14648ZM206.614 5.14648C206.061 5.14648 205.614 5.5942 205.614 6.14648C205.614 6.69877 206.061 7.14648 206.614 7.14648V5.14648ZM211.568 7.14648C212.12 7.14648 212.568 6.69877 212.568 6.14648C212.568 5.5942 212.12 5.14648 211.568 5.14648V7.14648ZM216.523 5.14648C215.97 5.14648 215.523 5.5942 215.523 6.14648C215.523 6.69877 215.97 7.14648 216.523 7.14648V5.14648ZM1 7.14648H3.47727V5.14648H1V7.14648ZM8.43182 7.14648H13.3864V5.14648H8.43182V7.14648ZM18.3409 7.14648H23.2955V5.14648H18.3409V7.14648ZM28.25 7.14648H33.2045V5.14648H28.25V7.14648ZM38.1591 7.14648H43.1136V5.14648H38.1591V7.14648ZM48.0682 7.14648H53.0227V5.14648H48.0682V7.14648ZM57.9773 7.14648H62.9318V5.14648H57.9773V7.14648ZM67.8864 7.14648H72.8409V5.14648H67.8864V7.14648ZM77.7954 7.14648H82.75V5.14648H77.7954V7.14648ZM87.7045 7.14648H92.6591V5.14648H87.7045V7.14648ZM97.6136 7.14648H102.568V5.14648H97.6136V7.14648ZM107.523 7.14648H112.477V5.14648H107.523V7.14648ZM117.432 7.14648H122.386V5.14648H117.432V7.14648ZM127.341 7.14648H132.295V5.14648H127.341V7.14648ZM137.25 7.14648H142.205V5.14648H137.25V7.14648ZM147.159 7.14648H152.114V5.14648H147.159V7.14648ZM157.068 7.14648H162.023V5.14648H157.068V7.14648ZM166.977 7.14648H171.932V5.14648H166.977V7.14648ZM176.886 7.14648H181.841V5.14648H176.886V7.14648ZM186.795 7.14648H191.75V5.14648H186.795V7.14648ZM196.705 7.14648H201.659V5.14648H196.705V7.14648ZM206.614 7.14648H211.568V5.14648H206.614V7.14648Z" fill="#068C1F"/>
</svg>
