<svg width="99" height="12" viewBox="0 0 99 12" fill="none" xmlns="http://www.w3.org/2000/svg">
<path d="M1 5.14648C0.447715 5.14648 0 5.5942 0 6.14648C0 6.69877 0.447715 7.14648 1 7.14648V5.14648ZM99 6.14648L89 0.372982V11.92L99 6.14648ZM3.45 7.14648C4.00228 7.14648 4.45 6.69877 4.45 6.14648C4.45 5.5942 4.00228 5.14648 3.45 5.14648V7.14648ZM8.35 5.14648C7.79772 5.14648 7.35 5.5942 7.35 6.14648C7.35 6.69877 7.79772 7.14648 8.35 7.14648V5.14648ZM13.25 7.14648C13.8023 7.14648 14.25 6.69877 14.25 6.14648C14.25 5.5942 13.8023 5.14648 13.25 5.14648V7.14648ZM18.15 5.14648C17.5977 5.14648 17.15 5.5942 17.15 6.14648C17.15 6.69877 17.5977 7.14648 18.15 7.14648V5.14648ZM23.05 7.14648C23.6023 7.14648 24.05 6.69877 24.05 6.14648C24.05 5.5942 23.6023 5.14648 23.05 5.14648V7.14648ZM27.95 5.14648C27.3977 5.14648 26.95 5.5942 26.95 6.14648C26.95 6.69877 27.3977 7.14648 27.95 7.14648V5.14648ZM32.85 7.14648C33.4023 7.14648 33.85 6.69877 33.85 6.14648C33.85 5.5942 33.4023 5.14648 32.85 5.14648V7.14648ZM37.75 5.14648C37.1977 5.14648 36.75 5.5942 36.75 6.14648C36.75 6.69877 37.1977 7.14648 37.75 7.14648V5.14648ZM42.65 7.14648C43.2023 7.14648 43.65 6.69877 43.65 6.14648C43.65 5.5942 43.2023 5.14648 42.65 5.14648V7.14648ZM47.55 5.14648C46.9977 5.14648 46.55 5.5942 46.55 6.14648C46.55 6.69877 46.9977 7.14648 47.55 7.14648V5.14648ZM52.45 7.14648C53.0023 7.14648 53.45 6.69877 53.45 6.14648C53.45 5.5942 53.0023 5.14648 52.45 5.14648V7.14648ZM57.35 5.14648C56.7977 5.14648 56.35 5.5942 56.35 6.14648C56.35 6.69877 56.7977 7.14648 57.35 7.14648V5.14648ZM62.25 7.14648C62.8023 7.14648 63.25 6.69877 63.25 6.14648C63.25 5.5942 62.8023 5.14648 62.25 5.14648V7.14648ZM67.15 5.14648C66.5977 5.14648 66.15 5.5942 66.15 6.14648C66.15 6.69877 66.5977 7.14648 67.15 7.14648V5.14648ZM72.05 7.14648C72.6023 7.14648 73.05 6.69877 73.05 6.14648C73.05 5.5942 72.6023 5.14648 72.05 5.14648V7.14648ZM76.95 5.14648C76.3977 5.14648 75.95 5.5942 75.95 6.14648C75.95 6.69877 76.3977 7.14648 76.95 7.14648V5.14648ZM81.85 7.14648C82.4023 7.14648 82.85 6.69877 82.85 6.14648C82.85 5.5942 82.4023 5.14648 81.85 5.14648V7.14648ZM86.75 5.14648C86.1977 5.14648 85.75 5.5942 85.75 6.14648C85.75 6.69877 86.1977 7.14648 86.75 7.14648V5.14648ZM91.65 7.14648C92.2023 7.14648 92.65 6.69877 92.65 6.14648C92.65 5.5942 92.2023 5.14648 91.65 5.14648V7.14648ZM96.55 5.14648C95.9977 5.14648 95.55 5.5942 95.55 6.14648C95.55 6.69877 95.9977 7.14648 96.55 7.14648V5.14648ZM1 7.14648H3.45V5.14648H1V7.14648ZM8.35 7.14648H13.25V5.14648H8.35V7.14648ZM18.15 7.14648H23.05V5.14648H18.15V7.14648ZM27.95 7.14648H32.85V5.14648H27.95V7.14648ZM37.75 7.14648H42.65V5.14648H37.75V7.14648ZM47.55 7.14648H52.45V5.14648H47.55V7.14648ZM57.35 7.14648H62.25V5.14648H57.35V7.14648ZM67.15 7.14648H72.05V5.14648H67.15V7.14648ZM76.95 7.14648H81.85V5.14648H76.95V7.14648ZM86.75 7.14648H91.65V5.14648H86.75V7.14648Z" fill="#068C1F"/>
</svg>
