<svg width="35" height="35" viewBox="0 0 35 35" fill="none" xmlns="http://www.w3.org/2000/svg">
<path d="M34.4636 31.4868L26.5292 23.5525C28.4395 21.0095 29.4707 17.9141 29.4672 14.7336C29.4672 6.60954 22.8577 0 14.7336 0C6.60954 0 0 6.60954 0 14.7336C0 22.8577 6.60954 29.4672 14.7336 29.4672C17.9141 29.4707 21.0095 28.4395 23.5525 26.5292L31.4868 34.4636C31.8885 34.8226 32.4123 35.0142 32.9508 34.9992C33.4893 34.9841 34.0016 34.7635 34.3825 34.3825C34.7635 34.0016 34.9841 33.4893 34.9992 32.9508C35.0142 32.4123 34.8226 31.8885 34.4636 31.4868ZM4.2096 14.7336C4.2096 12.6521 4.82682 10.6174 5.98321 8.88678C7.13961 7.15612 8.78323 5.80723 10.7062 5.01069C12.6292 4.21416 14.7453 4.00574 16.7867 4.41182C18.8282 4.81789 20.7034 5.8202 22.1752 7.29201C23.647 8.76381 24.6493 10.639 25.0554 12.6805C25.4615 14.7219 25.253 16.8379 24.4565 18.761C23.66 20.684 22.3111 22.3276 20.5804 23.484C18.8498 24.6404 16.815 25.2576 14.7336 25.2576C11.9435 25.2542 9.26861 24.1444 7.29571 22.1715C5.3228 20.1986 4.21295 17.5237 4.2096 14.7336Z" fill="#338778"/>
</svg>
