<svg width="28" height="34" viewBox="0 0 28 34" fill="none" xmlns="http://www.w3.org/2000/svg">
<path id="Vector" d="M27.8834 16.9187C27.8844 17.3505 27.7754 17.7751 27.5669 18.1514C27.3584 18.5278 27.0575 18.8429 26.6936 19.0662L4.13744 33.0763C3.75715 33.3128 3.32159 33.4419 2.87575 33.4502C2.4299 33.4586 1.98994 33.346 1.60129 33.124C1.21634 32.9055 0.895666 32.5868 0.672246 32.2007C0.448826 31.8146 0.330721 31.3751 0.330078 30.9273V2.91011C0.330721 2.46231 0.448826 2.02277 0.672246 1.63668C0.895666 1.2506 1.21634 0.931901 1.60129 0.713367C1.98994 0.491386 2.4299 0.378772 2.87575 0.387155C3.32159 0.395538 3.75715 0.524614 4.13744 0.761054L26.6936 14.7712C27.0575 14.9945 27.3584 15.3096 27.5669 15.6859C27.7754 16.0623 27.8844 16.4869 27.8834 16.9187Z" fill="white"/>
</svg>
