<svg width="27" height="24" viewBox="0 0 27 24" fill="none" xmlns="http://www.w3.org/2000/svg">
<path d="M1.00421 0.00383569C0.780619 0.0398141 0.572742 0.130518 0.403935 0.265755C0.235128 0.400993 0.112081 0.575406 0.0486198 0.769397C-0.0148419 0.963388 -0.0162039 1.16927 0.044687 1.36391C0.105578 1.55855 0.226309 1.73424 0.393315 1.87124L24.8291 23.5978C24.937 23.716 25.0715 23.8128 25.2241 23.8819C25.3767 23.9509 25.5439 23.9906 25.7148 23.9985C25.8858 24.0064 26.0567 23.9823 26.2165 23.9277C26.3763 23.8731 26.5214 23.7892 26.6425 23.6815C26.7635 23.5739 26.8577 23.4448 26.919 23.3027C26.9803 23.1606 27.0073 23.0086 26.9983 22.8566C26.9893 22.7045 26.9445 22.5559 26.8667 22.4203C26.789 22.2847 26.68 22.1651 26.547 22.0693L17.4984 14.0251V1.4291C17.4984 0.0548932 16.1483 -0.289473 15.0927 0.649115L8.71616 6.21655L2.11238 0.34277C1.98626 0.223339 1.83141 0.130814 1.65939 0.0721197C1.48737 0.0134254 1.30266 -0.00991833 1.11906 0.00383569C1.0808 0.002235 1.04247 0.002235 1.00421 0.00383569ZM2.8369 7.67658C2.16369 7.67658 1.61511 8.16325 1.61511 8.7629V15.2809C1.61511 15.8784 2.16369 16.3672 2.8369 16.3672H7.03742L15.0548 23.3251C16.2766 24.4115 17.4984 23.8553 17.4984 22.3746V19.5903L4.09656 7.67658H2.8369Z" fill="white"/>
</svg>
