<svg width="44" height="44" viewBox="0 0 44 44" fill="none" xmlns="http://www.w3.org/2000/svg">
<g clip-path="url(#clip0_2082_1023)">
<path d="M33.6017 22C33.6017 19.5279 32.4711 17.3311 30.7186 15.9325C29.8812 15.2641 28.7192 15.7483 28.3197 16.7425C27.9338 17.7028 28.4441 18.7823 29.08 19.5989C29.592 20.2565 29.8983 21.0945 29.8983 22.009C29.8983 22.9236 29.5884 23.7638 29.0711 24.4239C28.4353 25.235 27.9314 26.3092 28.3157 27.2655C28.7167 28.2634 29.8851 28.7462 30.7232 28.0722C32.473 26.6651 33.6017 24.4699 33.6017 22ZM33.6316 8.74306C32.713 8.19021 31.5636 8.66966 31.1638 9.66448C30.7782 10.6242 31.24 11.7034 32.1068 12.2678C35.2312 14.3026 37.3052 17.9001 37.3052 22C37.3052 26.1075 35.2313 29.6995 32.1069 31.7325C31.24 32.2966 30.7782 33.3758 31.1638 34.3355C31.5636 35.3303 32.713 35.8098 33.6316 35.2569C38.0402 32.6037 41 27.663 41 22C41 16.337 38.0402 11.3963 33.6316 8.74306ZM7 12.4137C5.34314 12.4137 4 13.7568 4 15.4137V28.5773C4 30.2342 5.34315 31.5773 7 31.5773H10.124C10.9383 31.5773 11.7176 31.9084 12.283 32.4944L19.1883 39.6523C21.0621 41.5945 24.3474 40.2682 24.3474 37.5694V6.42703C24.3474 3.72876 21.0631 2.40213 19.189 4.34342L12.2829 11.4973C11.7176 12.0829 10.9385 12.4137 10.1245 12.4137H7Z" fill="white"/>
</g>
<defs>
<clipPath id="clip0_2082_1023">
<rect width="44" height="44" fill="white"/>
</clipPath>
</defs>
</svg>
