<svg width="20" height="20" viewBox="0 0 20 20" fill="none" xmlns="http://www.w3.org/2000/svg">
<path d="M19.1992 4.83277L14.835 0.469491C14.6899 0.324361 14.5176 0.209236 14.328 0.130691C14.1384 0.0521458 13.9352 0.0117188 13.73 0.0117188C13.5248 0.0117188 13.3216 0.0521458 13.132 0.130691C12.9424 0.209236 12.7701 0.324361 12.625 0.469491L0.583016 12.5115C0.437293 12.656 0.321759 12.8281 0.243132 13.0178C0.164505 13.2074 0.124352 13.4107 0.125008 13.616V17.9802C0.125008 18.3946 0.289628 18.7921 0.582653 19.0851C0.875679 19.3781 1.27311 19.5427 1.68751 19.5427H18.0938C18.301 19.5427 18.4997 19.4604 18.6462 19.3139C18.7927 19.1674 18.875 18.9687 18.875 18.7615C18.875 18.5543 18.7927 18.3556 18.6462 18.2091C18.4997 18.0625 18.301 17.9802 18.0938 17.9802H8.26173L19.1992 7.04273C19.3444 6.89764 19.4595 6.72537 19.538 6.53578C19.6166 6.34618 19.657 6.14297 19.657 5.93775C19.657 5.73253 19.6166 5.52932 19.538 5.33973C19.4595 5.15013 19.3444 4.97787 19.1992 4.83277ZM10.2813 5.02222L11.9111 6.65211L3.64063 14.9226L2.01075 13.2927L10.2813 5.02222ZM1.68751 17.9802V15.1785L4.48927 17.9802H1.68751ZM6.37501 17.657L4.7461 16.0271L13.0156 7.7566L14.6455 9.38648L6.37501 17.657ZM15.75 8.28199L11.3867 3.91773L13.7305 1.57398L18.0938 5.93824L15.75 8.28199Z" fill="white"/>
</svg>
